<?xml version="1.0" encoding="UTF-8"?>
<!DOCTYPE svg PUBLIC "-//W3C//DTD SVG 1.1//EN" "http://www.w3.org/Graphics/SVG/1.1/DTD/svg11.dtd">
<svg xmlns="http://www.w3.org/2000/svg" version="1.1" width="400px" height="400px" style="shape-rendering:geometricPrecision; text-rendering:geometricPrecision; image-rendering:optimizeQuality; fill-rule:evenodd; clip-rule:evenodd" xmlns:xlink="http://www.w3.org/1999/xlink">
<g><path style="opacity:0.999" fill="#040404" d="M 21.5,-0.5 C 139.833,-0.5 258.167,-0.5 376.5,-0.5C 387.483,2.98437 394.65,10.3177 398,21.5C 398.667,140.167 398.667,258.833 398,377.5C 394.65,388.682 387.483,396.016 376.5,399.5C 258.167,399.5 139.833,399.5 21.5,399.5C 10.5,395.833 3.16667,388.5 -0.5,377.5C -0.5,258.833 -0.5,140.167 -0.5,21.5C 3.16667,10.5 10.5,3.16667 21.5,-0.5 Z"/></g>
<g><path style="opacity:1" fill="#63bfe3" d="M 272.5,93.5 C 272.928,96.7846 273.928,99.7846 275.5,102.5C 278.056,111.611 275.723,119.444 268.5,126C 265.338,127.027 262.338,128.194 259.5,129.5C 254.248,129.862 249.248,130.862 244.5,132.5C 241.833,132.5 239.167,132.5 236.5,132.5C 233.833,132.5 231.167,132.5 228.5,132.5C 228.109,147.165 227.775,161.832 227.5,176.5C 226.538,186.223 224.038,195.556 220,204.5C 207.058,220.445 190.892,224.612 171.5,217C 146.536,205.231 130.37,186.064 123,159.5C 122.333,153.5 122.333,147.5 123,141.5C 123.522,138.719 124.689,136.385 126.5,134.5C 129.5,132.167 132.167,129.5 134.5,126.5C 142.244,121.388 150.911,118.722 160.5,118.5C 175.5,118.5 190.5,118.5 205.5,118.5C 205.5,108.5 205.5,98.5 205.5,88.5C 205.298,86.0504 205.631,83.717 206.5,81.5C 208.074,79.8984 208.741,77.8984 208.5,75.5C 215.284,61.1172 226.284,56.6172 241.5,62C 250.749,66.03 258.582,71.8634 265,79.5C 268.288,83.7436 270.788,88.4103 272.5,93.5 Z"/></g>
<g><path style="opacity:0.999" fill="#040405" d="M 232.5,72.5 C 235.877,72.9595 239.211,73.6261 242.5,74.5C 244.001,75.7515 245.668,76.7515 247.5,77.5C 249.833,80.5 252.5,83.1667 255.5,85.5C 256.934,88.0472 258.6,90.3805 260.5,92.5C 262.156,98.3638 262.823,104.364 262.5,110.5C 259.372,113.97 255.705,116.636 251.5,118.5C 243.608,119.625 235.775,119.625 228,118.5C 227.5,109.173 227.334,99.8393 227.5,90.5C 227.5,88.8333 227.5,87.1667 227.5,85.5C 228.768,83.0948 229.435,80.4282 229.5,77.5C 230.737,76.0351 231.737,74.3684 232.5,72.5 Z"/></g>
<g><path style="opacity:0.663" fill="#427184" d="M 232.5,72.5 C 236.111,71.2471 239.444,71.9137 242.5,74.5C 239.211,73.6261 235.877,72.9595 232.5,72.5 Z"/></g>
<g><path style="opacity:0.875" fill="#456e7e" d="M 247.5,77.5 C 251.167,79.1667 253.833,81.8333 255.5,85.5C 252.5,83.1667 249.833,80.5 247.5,77.5 Z"/></g>
<g><path style="opacity:0.682" fill="#476c7a" d="M 208.5,75.5 C 208.741,77.8984 208.074,79.8984 206.5,81.5C 206.259,79.1016 206.926,77.1016 208.5,75.5 Z"/></g>
<g><path style="opacity:0.698" fill="#467081" d="M 229.5,77.5 C 229.435,80.4282 228.768,83.0948 227.5,85.5C 227.294,82.5049 227.96,79.8383 229.5,77.5 Z"/></g>
<g><path style="opacity:0.714" fill="#456f7f" d="M 272.5,93.5 C 274.472,96.0836 275.472,99.0836 275.5,102.5C 273.928,99.7846 272.928,96.7846 272.5,93.5 Z"/></g>
<g><path style="opacity:0.851" fill="#375460" d="M 260.5,92.5 C 261.793,93.842 262.626,95.5087 263,97.5C 263.814,102.02 263.647,106.354 262.5,110.5C 262.823,104.364 262.156,98.3638 260.5,92.5 Z"/></g>
<g><path style="opacity:0.894" fill="#386273" d="M 205.5,88.5 C 205.5,98.5 205.5,108.5 205.5,118.5C 190.5,118.5 175.5,118.5 160.5,118.5C 174.99,117.504 189.657,117.171 204.5,117.5C 204.173,107.652 204.506,97.9856 205.5,88.5 Z"/></g>
<g><path style="opacity:0.755" fill="#3d6170" d="M 227.5,90.5 C 227.334,99.8393 227.5,109.173 228,118.5C 235.775,119.625 243.608,119.625 251.5,118.5C 250.391,119.29 249.058,119.79 247.5,120C 240.508,120.5 233.508,120.666 226.5,120.5C 226.173,110.319 226.506,100.319 227.5,90.5 Z"/></g>
<g><path style="opacity:0.705" fill="#45829a" d="M 192.5,130.5 C 179.428,130.098 166.428,130.764 153.5,132.5C 156.534,130.982 159.867,130.149 163.5,130C 173.342,129.175 183.009,129.342 192.5,130.5 Z"/></g>
<g><path style="opacity:0.733" fill="#467f95" d="M 134.5,126.5 C 132.167,129.5 129.5,132.167 126.5,134.5C 128.167,130.833 130.833,128.167 134.5,126.5 Z"/></g>
<g><path style="opacity:0.998" fill="#040505" d="M 192.5,130.5 C 196.982,131.326 201.649,131.826 206.5,132C 207.798,134.727 208.798,137.56 209.5,140.5C 209.229,145.434 209.896,150.1 211.5,154.5C 213.302,166.983 212.802,179.317 210,191.5C 202.499,205.536 190.999,210.369 175.5,206C 156.158,198.157 143.158,184.324 136.5,164.5C 135.646,158.879 135.313,153.212 135.5,147.5C 139.488,140.161 145.488,135.161 153.5,132.5C 166.428,130.764 179.428,130.098 192.5,130.5 Z"/></g>
<g><path style="opacity:0.776" fill="#447b90" d="M 259.5,129.5 C 254.795,131.322 249.795,132.322 244.5,132.5C 249.248,130.862 254.248,129.862 259.5,129.5 Z"/></g>
<g><path style="opacity:0.722" fill="#426776" d="M 236.5,132.5 C 234.393,133.468 232.059,133.802 229.5,133.5C 229.667,144.505 229.5,155.505 229,166.5C 228.821,170.025 228.321,173.359 227.5,176.5C 227.775,161.832 228.109,147.165 228.5,132.5C 231.167,132.5 233.833,132.5 236.5,132.5 Z"/></g>
<g><path style="opacity:0.722" fill="#416e80" d="M 209.5,140.5 C 210.644,144.964 211.31,149.63 211.5,154.5C 209.896,150.1 209.229,145.434 209.5,140.5 Z"/></g>
<g><path style="opacity:0.771" fill="#496f7e" d="M 135.5,147.5 C 135.313,153.212 135.646,158.879 136.5,164.5C 135.778,164.082 135.278,163.416 135,162.5C 134.184,157.316 134.35,152.316 135.5,147.5 Z"/></g>
<g><path style="opacity:0.983" fill="#d3d6d7" d="M 251.5,261.5 C 263.975,261.467 268.809,267.467 266,279.5C 259.59,287.899 252.59,288.566 245,281.5C 239.961,272.33 242.128,265.664 251.5,261.5 Z"/></g>
<g><path style="opacity:0.983" fill="#d3d6d7" d="M 59.5,261.5 C 63.1817,261.335 66.8484,261.501 70.5,262C 72.8483,263.688 73.0149,265.522 71,267.5C 68.0828,265.607 64.9162,265.107 61.5,266C 60.1398,267.938 60.4732,269.604 62.5,271C 66.4508,271.536 69.9508,273.036 73,275.5C 74.1825,279.274 73.3492,282.441 70.5,285C 66.8333,285.667 63.1667,285.667 59.5,285C 57.7774,284.477 56.444,283.477 55.5,282C 55.6135,280.72 56.2801,279.887 57.5,279.5C 60.8187,282.231 64.4854,282.898 68.5,281.5C 69.7472,279.994 69.7472,278.494 68.5,277C 63.4187,276.533 59.2521,274.366 56,270.5C 55.3333,268.833 55.3333,267.167 56,265.5C 57.3756,264.295 58.5423,262.962 59.5,261.5 Z"/></g>
<g><path style="opacity:0.979" fill="#d4d7d8" d="M 105.5,264.5 C 107.142,262.919 109.142,262.253 111.5,262.5C 108.495,267.018 105.662,271.684 103,276.5C 102.502,279.482 102.335,282.482 102.5,285.5C 101.167,285.5 99.8333,285.5 98.5,285.5C 98.6646,282.482 98.498,279.482 98,276.5C 95.5417,271.747 92.7084,267.247 89.5,263C 91.0268,261.368 92.6934,261.201 94.5,262.5C 96.5086,265.506 98.5086,268.506 100.5,271.5C 102.409,269.351 104.076,267.018 105.5,264.5 Z"/></g>
<g><path style="opacity:0.724" fill="#5f6568" d="M 132.5,262.5 C 131.167,262.5 129.833,262.5 128.5,262.5C 128.5,270.167 128.5,277.833 128.5,285.5C 127.508,277.684 127.174,269.684 127.5,261.5C 129.415,261.216 131.081,261.549 132.5,262.5 Z"/></g>
<g><path style="opacity:0.97" fill="#d8dbdc" d="M 132.5,262.5 C 135.54,265.914 137.54,269.914 138.5,274.5C 139.822,274.67 140.989,274.337 142,273.5C 143.181,269.637 145.014,266.137 147.5,263C 149.134,262.506 150.801,262.34 152.5,262.5C 152.5,270.167 152.5,277.833 152.5,285.5C 151.167,285.5 149.833,285.5 148.5,285.5C 148.666,280.489 148.499,275.489 148,270.5C 145.344,274.144 143.511,278.144 142.5,282.5C 141.178,282.67 140.011,282.337 139,281.5C 137,278.167 135,274.833 133,271.5C 132.501,276.155 132.334,280.821 132.5,285.5C 131.167,285.5 129.833,285.5 128.5,285.5C 128.5,277.833 128.5,270.167 128.5,262.5C 129.833,262.5 131.167,262.5 132.5,262.5 Z"/></g>
<g><path style="opacity:0.994" fill="#dbdedf" d="M 182.5,262.5 C 184.284,262.893 185.95,263.559 187.5,264.5C 188.299,267.43 188.632,270.43 188.5,273.5C 186.99,274.836 185.323,276.003 183.5,277C 180.305,277.181 177.305,277.681 174.5,278.5C 173.532,280.607 173.198,282.941 173.5,285.5C 172.5,285.5 171.5,285.5 170.5,285.5C 170.5,277.833 170.5,270.167 170.5,262.5C 174.5,262.5 178.5,262.5 182.5,262.5 Z"/></g>
<g><path style="opacity:0.975" fill="#dadedf" d="M 205.5,262.5 C 206.833,262.5 208.167,262.5 209.5,262.5C 209.19,265.713 209.523,268.713 210.5,271.5C 214.371,271.815 218.038,271.482 221.5,270.5C 222.473,268.052 222.806,265.385 222.5,262.5C 223.5,262.5 224.5,262.5 225.5,262.5C 225.5,270.5 225.5,278.5 225.5,286.5C 224.167,286.5 222.833,286.5 221.5,286.5C 221.5,283.167 221.5,279.833 221.5,276.5C 217.702,275.517 213.702,275.183 209.5,275.5C 209.5,278.833 209.5,282.167 209.5,285.5C 208.167,285.5 206.833,285.5 205.5,285.5C 205.5,277.833 205.5,270.167 205.5,262.5 Z"/></g>
<g><path style="opacity:0.993" fill="#d8dbdd" d="M 300.5,262.5 C 301.833,262.5 303.167,262.5 304.5,262.5C 304.5,270.167 304.5,277.833 304.5,285.5C 303.127,285.657 301.793,285.49 300.5,285C 296.601,280.004 292.601,275.171 288.5,270.5C 287.513,275.305 287.179,280.305 287.5,285.5C 286.167,285.5 284.833,285.5 283.5,285.5C 283.5,277.5 283.5,269.5 283.5,261.5C 285.5,261.5 287.5,261.5 289.5,261.5C 292.217,267.244 295.717,272.578 300,277.5C 300.499,272.511 300.666,267.511 300.5,262.5 Z"/></g>
<g><path style="opacity:0.99" fill="#d1d5d6" d="M 321.5,261.5 C 322.873,261.343 324.207,261.51 325.5,262C 327.467,265.433 329.801,268.6 332.5,271.5C 334.735,268.709 336.735,265.709 338.5,262.5C 340.167,261.167 341.833,261.167 343.5,262.5C 340.468,267.035 337.635,271.702 335,276.5C 334.502,279.482 334.335,282.482 334.5,285.5C 333.167,285.5 331.833,285.5 330.5,285.5C 330.8,277.278 327.966,270.278 322,264.5C 321.517,263.552 321.351,262.552 321.5,261.5 Z"/></g>
<g><path style="opacity:0.561" fill="#666a6c" d="M 111.5,262.5 C 109.142,262.253 107.142,262.919 105.5,264.5C 105.414,263.504 105.748,262.671 106.5,262C 109.021,261.2 110.688,261.367 111.5,262.5 Z"/></g>
<g><path style="opacity:0.639" fill="#4d5e65" d="M 205.5,262.5 C 206.919,261.549 208.585,261.216 210.5,261.5C 210.5,264.833 210.5,268.167 210.5,271.5C 209.523,268.713 209.19,265.713 209.5,262.5C 208.167,262.5 206.833,262.5 205.5,262.5 Z"/></g>
<g><path style="opacity:0.965" fill="#5d5f5f" d="M 300.5,262.5 C 301.919,261.549 303.585,261.216 305.5,261.5C 305.826,269.684 305.492,277.684 304.5,285.5C 304.5,277.833 304.5,270.167 304.5,262.5C 303.167,262.5 301.833,262.5 300.5,262.5 Z"/></g>
<g><path style="opacity:0.71" fill="#878c8e" d="M 225.5,262.5 C 224.5,262.5 223.5,262.5 222.5,262.5C 222.806,265.385 222.473,268.052 221.5,270.5C 221.5,267.5 221.5,264.5 221.5,261.5C 223.099,261.232 224.432,261.566 225.5,262.5 Z"/></g>
<g><path style="opacity:0.729" fill="#777d7e" d="M 182.5,262.5 C 178.5,262.5 174.5,262.5 170.5,262.5C 170.5,270.167 170.5,277.833 170.5,285.5C 171.5,285.5 172.5,285.5 173.5,285.5C 173.198,282.941 173.532,280.607 174.5,278.5C 174.5,281.167 174.5,283.833 174.5,286.5C 172.833,286.5 171.167,286.5 169.5,286.5C 169.5,278.167 169.5,269.833 169.5,261.5C 174.032,261.182 178.366,261.515 182.5,262.5 Z"/></g>
<g><path style="opacity:1" fill="#070808" d="M 181.5,266.5 C 184.855,268.185 185.189,270.185 182.5,272.5C 180.167,272.5 177.833,272.5 175.5,272.5C 175.5,270.5 175.5,268.5 175.5,266.5C 177.5,266.5 179.5,266.5 181.5,266.5 Z"/></g>
<g><path style="opacity:0.702" fill="#525759" d="M 187.5,264.5 C 188.117,264.611 188.617,264.944 189,265.5C 189.801,268.367 189.634,271.034 188.5,273.5C 188.632,270.43 188.299,267.43 187.5,264.5 Z"/></g>
<g><path style="opacity:0.999" fill="#141515" d="M 251.5,265.5 C 260.207,265.037 263.707,269.037 262,277.5C 256.57,284.284 251.57,283.95 247,276.5C 246.333,274.833 246.333,273.167 247,271.5C 248.332,269.34 249.832,267.34 251.5,265.5 Z"/></g>
<g><path style="opacity:0.836" fill="#393b3b" d="M 181.5,266.5 C 179.5,266.5 177.5,266.5 175.5,266.5C 175.5,268.5 175.5,270.5 175.5,272.5C 177.833,272.5 180.167,272.5 182.5,272.5C 179.77,273.817 176.937,273.817 174,272.5C 172.686,265.756 175.186,263.756 181.5,266.5 Z"/></g>
<g><path style="opacity:0.718" fill="#5e7d89" d="M 288.5,270.5 C 288.5,275.833 288.5,281.167 288.5,286.5C 286.585,286.784 284.919,286.451 283.5,285.5C 284.833,285.5 286.167,285.5 287.5,285.5C 287.179,280.305 287.513,275.305 288.5,270.5 Z"/></g>
<g><path style="opacity:0.82" fill="#545f63" d="M 221.5,276.5 C 217.833,276.5 214.167,276.5 210.5,276.5C 210.81,279.713 210.477,282.713 209.5,285.5C 209.5,282.167 209.5,278.833 209.5,275.5C 213.702,275.183 217.702,275.517 221.5,276.5 Z"/></g>
</svg>
