<svg width="193" height="194" viewBox="0 0 193 194" fill="none" xmlns="http://www.w3.org/2000/svg">
    <path d="M7.72 0H0v7.76h7.72V0ZM15.44 0H7.72v7.76h7.72V0ZM23.16 0h-7.72v7.76h7.72V0ZM30.88 0h-7.72v7.76h7.72V0ZM38.6 0h-7.72v7.76h7.72V0ZM46.32 0H38.6v7.76h7.72V0ZM54.04 0h-7.72v7.76h7.72V0ZM69.48 0h-7.72v7.76h7.72V0ZM77.2 0h-7.72v7.76h7.72V0ZM108.08 0h-7.72v7.76h7.72V0ZM131.24 0h-7.72v7.76h7.72V0ZM146.68 0h-7.72v7.76h7.72V0ZM154.4 0h-7.72v7.76h7.72V0ZM162.12 0h-7.72v7.76h7.72V0ZM169.84 0h-7.72v7.76h7.72V0ZM177.56 0h-7.72v7.76h7.72V0ZM185.28 0h-7.72v7.76h7.72V0ZM193 0h-7.72v7.76H193V0ZM7.72 7.76H0v7.76h7.72V7.76ZM54.04 7.76h-7.72v7.76h7.72V7.76ZM100.36 7.76h-7.72v7.76h7.72V7.76ZM108.08 7.76h-7.72v7.76h7.72V7.76ZM131.24 7.76h-7.72v7.76h7.72V7.76ZM146.68 7.76h-7.72v7.76h7.72V7.76ZM193 7.76h-7.72v7.76H193V7.76ZM7.72 15.52H0v7.76h7.72v-7.76ZM23.16 15.52h-7.72v7.76h7.72v-7.76ZM30.88 15.52h-7.72v7.76h7.72v-7.76ZM38.6 15.52h-7.72v7.76h7.72v-7.76ZM54.04 15.52h-7.72v7.76h7.72v-7.76ZM77.2 15.52h-7.72v7.76h7.72v-7.76ZM84.92 15.52H77.2v7.76h7.72v-7.76ZM92.64 15.52h-7.72v7.76h7.72v-7.76ZM100.36 15.52h-7.72v7.76h7.72v-7.76ZM108.08 15.52h-7.72v7.76h7.72v-7.76ZM131.24 15.52h-7.72v7.76h7.72v-7.76ZM146.68 15.52h-7.72v7.76h7.72v-7.76ZM162.12 15.52h-7.72v7.76h7.72v-7.76ZM169.84 15.52h-7.72v7.76h7.72v-7.76ZM177.56 15.52h-7.72v7.76h7.72v-7.76ZM193 15.52h-7.72v7.76H193v-7.76ZM7.72 23.28H0v7.76h7.72v-7.76ZM23.16 23.28h-7.72v7.76h7.72v-7.76ZM30.88 23.28h-7.72v7.76h7.72v-7.76ZM38.6 23.28h-7.72v7.76h7.72v-7.76ZM54.04 23.28h-7.72v7.76h7.72v-7.76ZM77.2 23.28h-7.72v7.76h7.72v-7.76ZM84.92 23.28H77.2v7.76h7.72v-7.76ZM108.08 23.28h-7.72v7.76h7.72v-7.76ZM146.68 23.28h-7.72v7.76h7.72v-7.76ZM162.12 23.28h-7.72v7.76h7.72v-7.76ZM169.84 23.28h-7.72v7.76h7.72v-7.76ZM177.56 23.28h-7.72v7.76h7.72v-7.76ZM193 23.28h-7.72v7.76H193v-7.76ZM7.72 31.04H0v7.76h7.72v-7.76ZM23.16 31.04h-7.72v7.76h7.72v-7.76ZM30.88 31.04h-7.72v7.76h7.72v-7.76ZM38.6 31.04h-7.72v7.76h7.72v-7.76ZM54.04 31.04h-7.72v7.76h7.72v-7.76ZM69.48 31.04h-7.72v7.76h7.72v-7.76ZM84.92 31.04H77.2v7.76h7.72v-7.76ZM92.64 31.04h-7.72v7.76h7.72v-7.76ZM100.36 31.04h-7.72v7.76h7.72v-7.76ZM115.8 31.04h-7.72v7.76h7.72v-7.76ZM146.68 31.04h-7.72v7.76h7.72v-7.76ZM162.12 31.04h-7.72v7.76h7.72v-7.76ZM169.84 31.04h-7.72v7.76h7.72v-7.76ZM177.56 31.04h-7.72v7.76h7.72v-7.76ZM193 31.04h-7.72v7.76H193v-7.76ZM7.72 38.8H0v7.76h7.72V38.8ZM54.04 38.8h-7.72v7.76h7.72V38.8ZM115.8 38.8h-7.72v7.76h7.72V38.8ZM146.68 38.8h-7.72v7.76h7.72V38.8ZM193 38.8h-7.72v7.76H193V38.8ZM7.72 46.56H0v7.76h7.72v-7.76ZM15.44 46.56H7.72v7.76h7.72v-7.76ZM23.16 46.56h-7.72v7.76h7.72v-7.76ZM30.88 46.56h-7.72v7.76h7.72v-7.76ZM38.6 46.56h-7.72v7.76h7.72v-7.76ZM46.32 46.56H38.6v7.76h7.72v-7.76ZM54.04 46.56h-7.72v7.76h7.72v-7.76ZM69.48 46.56h-7.72v7.76h7.72v-7.76ZM84.92 46.56H77.2v7.76h7.72v-7.76ZM100.36 46.56h-7.72v7.76h7.72v-7.76ZM115.8 46.56h-7.72v7.76h7.72v-7.76ZM131.24 46.56h-7.72v7.76h7.72v-7.76ZM146.68 46.56h-7.72v7.76h7.72v-7.76ZM154.4 46.56h-7.72v7.76h7.72v-7.76ZM162.12 46.56h-7.72v7.76h7.72v-7.76ZM169.84 46.56h-7.72v7.76h7.72v-7.76ZM177.56 46.56h-7.72v7.76h7.72v-7.76ZM185.28 46.56h-7.72v7.76h7.72v-7.76ZM193 46.56h-7.72v7.76H193v-7.76ZM69.48 54.32h-7.72v7.76h7.72v-7.76ZM84.92 54.32H77.2v7.76h7.72v-7.76ZM100.36 54.32h-7.72v7.76h7.72v-7.76ZM108.08 54.32h-7.72v7.76h7.72v-7.76ZM123.52 54.32h-7.72v7.76h7.72v-7.76ZM131.24 54.32h-7.72v7.76h7.72v-7.76ZM7.72 62.08H0v7.76h7.72v-7.76ZM30.88 62.08h-7.72v7.76h7.72v-7.76ZM38.6 62.08h-7.72v7.76h7.72v-7.76ZM46.32 62.08H38.6v7.76h7.72v-7.76ZM54.04 62.08h-7.72v7.76h7.72v-7.76ZM61.76 62.08h-7.72v7.76h7.72v-7.76ZM69.48 62.08h-7.72v7.76h7.72v-7.76ZM77.2 62.08h-7.72v7.76h7.72v-7.76ZM108.08 62.08h-7.72v7.76h7.72v-7.76ZM131.24 62.08h-7.72v7.76h7.72v-7.76ZM138.96 62.08h-7.72v7.76h7.72v-7.76ZM146.68 62.08h-7.72v7.76h7.72v-7.76ZM162.12 62.08h-7.72v7.76h7.72v-7.76ZM193 62.08h-7.72v7.76H193v-7.76ZM15.44 69.84H7.72v7.76h7.72v-7.76ZM30.88 69.84h-7.72v7.76h7.72v-7.76ZM38.6 69.84h-7.72v7.76h7.72v-7.76ZM61.76 69.84h-7.72v7.76h7.72v-7.76ZM69.48 69.84h-7.72v7.76h7.72v-7.76ZM100.36 69.84h-7.72v7.76h7.72v-7.76ZM123.52 69.84h-7.72v7.76h7.72v-7.76ZM138.96 69.84h-7.72v7.76h7.72v-7.76ZM146.68 69.84h-7.72v7.76h7.72v-7.76ZM162.12 69.84h-7.72v7.76h7.72v-7.76ZM169.84 69.84h-7.72v7.76h7.72v-7.76ZM177.56 69.84h-7.72v7.76h7.72v-7.76ZM185.28 69.84h-7.72v7.76h7.72v-7.76ZM193 69.84h-7.72v7.76H193v-7.76ZM7.72 77.6H0v7.76h7.72V77.6Z" fill="#F2F2FA"/>
    <path d="M15.44 77.6H7.72v7.76h7.72V77.6ZM30.88 77.6h-7.72v7.76h7.72V77.6ZM38.6 77.6h-7.72v7.76h7.72V77.6ZM46.32 77.6H38.6v7.76h7.72V77.6ZM54.04 77.6h-7.72v7.76h7.72V77.6ZM61.76 77.6h-7.72v7.76h7.72V77.6ZM77.2 77.6h-7.72v7.76h7.72V77.6ZM92.64 77.6h-7.72v7.76h7.72V77.6ZM100.36 77.6h-7.72v7.76h7.72V77.6ZM115.8 77.6h-7.72v7.76h7.72V77.6ZM131.24 77.6h-7.72v7.76h7.72V77.6ZM138.96 77.6h-7.72v7.76h7.72V77.6ZM146.68 77.6h-7.72v7.76h7.72V77.6ZM154.4 77.6h-7.72v7.76h7.72V77.6ZM162.12 77.6h-7.72v7.76h7.72V77.6ZM169.84 77.6h-7.72v7.76h7.72V77.6ZM177.56 77.6h-7.72v7.76h7.72V77.6ZM185.28 77.6h-7.72v7.76h7.72V77.6ZM7.72 85.36H0v7.76h7.72v-7.76ZM38.6 85.36h-7.72v7.76h7.72v-7.76ZM46.32 85.36H38.6v7.76h7.72v-7.76ZM61.76 85.36h-7.72v7.76h7.72v-7.76ZM77.2 85.36h-7.72v7.76h7.72v-7.76ZM84.92 85.36H77.2v7.76h7.72v-7.76ZM115.8 85.36h-7.72v7.76h7.72v-7.76ZM123.52 85.36h-7.72v7.76h7.72v-7.76ZM162.12 85.36h-7.72v7.76h7.72v-7.76ZM177.56 85.36h-7.72v7.76h7.72v-7.76ZM185.28 85.36h-7.72v7.76h7.72v-7.76ZM7.72 93.12H0v7.76h7.72v-7.76ZM30.88 93.12h-7.72v7.76h7.72v-7.76ZM38.6 93.12h-7.72v7.76h7.72v-7.76ZM46.32 93.12H38.6v7.76h7.72v-7.76ZM54.04 93.12h-7.72v7.76h7.72v-7.76ZM61.76 93.12h-7.72v7.76h7.72v-7.76ZM69.48 93.12h-7.72v7.76h7.72v-7.76ZM84.92 93.12H77.2v7.76h7.72v-7.76ZM92.64 93.12h-7.72v7.76h7.72v-7.76ZM108.08 93.12h-7.72v7.76h7.72v-7.76ZM115.8 93.12h-7.72v7.76h7.72v-7.76ZM131.24 93.12h-7.72v7.76h7.72v-7.76ZM154.4 93.12h-7.72v7.76h7.72v-7.76ZM169.84 93.12h-7.72v7.76h7.72v-7.76ZM177.56 93.12h-7.72v7.76h7.72v-7.76ZM193 93.12h-7.72v7.76H193v-7.76Z" fill="#F2F2FA"/>
    <path d="M7.72 100.88H0v7.76h7.72v-7.76ZM15.44 100.88H7.72v7.76h7.72v-7.76ZM61.76 100.88h-7.72v7.76h7.72v-7.76ZM69.48 100.88h-7.72v7.76h7.72v-7.76ZM77.2 100.88h-7.72v7.76h7.72v-7.76ZM100.36 100.88h-7.72v7.76h7.72v-7.76ZM115.8 100.88h-7.72v7.76h7.72v-7.76ZM123.52 100.88h-7.72v7.76h7.72v-7.76ZM131.24 100.88h-7.72v7.76h7.72v-7.76ZM138.96 100.88h-7.72v7.76h7.72v-7.76ZM162.12 100.88h-7.72v7.76h7.72v-7.76ZM177.56 100.88h-7.72v7.76h7.72v-7.76ZM185.28 100.88h-7.72v7.76h7.72v-7.76ZM193 100.88h-7.72v7.76H193v-7.76ZM7.72 108.64H0v7.76h7.72v-7.76ZM15.44 108.64H7.72v7.76h7.72v-7.76ZM23.16 108.64h-7.72v7.76h7.72v-7.76ZM54.04 108.64h-7.72v7.76h7.72v-7.76ZM77.2 108.64h-7.72v7.76h7.72v-7.76ZM92.64 108.64h-7.72v7.76h7.72v-7.76ZM100.36 108.64h-7.72v7.76h7.72v-7.76ZM115.8 108.64h-7.72v7.76h7.72v-7.76ZM138.96 108.64h-7.72v7.76h7.72v-7.76ZM154.4 108.64h-7.72v7.76h7.72v-7.76ZM162.12 108.64h-7.72v7.76h7.72v-7.76ZM177.56 108.64h-7.72v7.76h7.72v-7.76ZM15.44 116.4H7.72v7.76h7.72v-7.76ZM61.76 116.4h-7.72v7.76h7.72v-7.76ZM100.36 116.4h-7.72v7.76h7.72v-7.76ZM115.8 116.4h-7.72v7.76h7.72v-7.76ZM123.52 116.4h-7.72v7.76h7.72v-7.76ZM146.68 116.4h-7.72v7.76h7.72v-7.76ZM162.12 116.4h-7.72v7.76h7.72v-7.76ZM185.28 116.4h-7.72v7.76h7.72v-7.76ZM7.72 124.16H0v7.76h7.72v-7.76ZM46.32 124.16H38.6v7.76h7.72v-7.76ZM54.04 124.16h-7.72v7.76h7.72v-7.76Z" fill="#F2F2FA"/>
    <path d="M61.76 124.16h-7.72v7.76h7.72v-7.76ZM77.2 124.16h-7.72v7.76h7.72v-7.76ZM84.92 124.16H77.2v7.76h7.72v-7.76ZM100.36 124.16h-7.72v7.76h7.72v-7.76ZM123.52 124.16h-7.72v7.76h7.72v-7.76ZM131.24 124.16h-7.72v7.76h7.72v-7.76ZM138.96 124.16h-7.72v7.76h7.72v-7.76ZM146.68 124.16h-7.72v7.76h7.72v-7.76ZM154.4 124.16h-7.72v7.76h7.72v-7.76ZM162.12 124.16h-7.72v7.76h7.72v-7.76ZM169.84 124.16h-7.72v7.76h7.72v-7.76ZM185.28 124.16h-7.72v7.76h7.72v-7.76ZM69.48 131.92h-7.72v7.76h7.72v-7.76ZM84.92 131.92H77.2v7.76h7.72v-7.76ZM100.36 131.92h-7.72v7.76h7.72v-7.76ZM123.52 131.92h-7.72v7.76h7.72v-7.76ZM131.24 131.92h-7.72v7.76h7.72v-7.76ZM162.12 131.92h-7.72v7.76h7.72v-7.76ZM169.84 131.92h-7.72v7.76h7.72v-7.76ZM177.56 131.92h-7.72v7.76h7.72v-7.76ZM7.72 139.68H0v7.76h7.72v-7.76ZM15.44 139.68H7.72v7.76h7.72v-7.76ZM23.16 139.68h-7.72v7.76h7.72v-7.76ZM30.88 139.68h-7.72v7.76h7.72v-7.76ZM38.6 139.68h-7.72v7.76h7.72v-7.76ZM46.32 139.68H38.6v7.76h7.72v-7.76ZM54.04 139.68h-7.72v7.76h7.72v-7.76ZM69.48 139.68h-7.72v7.76h7.72v-7.76ZM100.36 139.68h-7.72v7.76h7.72v-7.76ZM123.52 139.68h-7.72v7.76h7.72v-7.76ZM131.24 139.68h-7.72v7.76h7.72v-7.76ZM146.68 139.68h-7.72v7.76h7.72v-7.76ZM162.12 139.68h-7.72v7.76h7.72v-7.76ZM169.84 139.68h-7.72v7.76h7.72v-7.76ZM177.56 139.68h-7.72v7.76h7.72v-7.76ZM193 139.68h-7.72v7.76H193v-7.76ZM7.72 147.44H0v7.76h7.72v-7.76ZM54.04 147.44h-7.72v7.76h7.72v-7.76ZM69.48 147.44h-7.72v7.76h7.72v-7.76ZM84.92 147.44H77.2v7.76h7.72v-7.76ZM115.8 147.44h-7.72v7.76h7.72v-7.76ZM131.24 147.44h-7.72v7.76h7.72v-7.76ZM162.12 147.44h-7.72v7.76h7.72v-7.76ZM177.56 147.44h-7.72v7.76h7.72v-7.76ZM7.72 155.2H0v7.76h7.72v-7.76ZM23.16 155.2h-7.72v7.76h7.72v-7.76ZM30.88 155.2h-7.72v7.76h7.72v-7.76ZM38.6 155.2h-7.72v7.76h7.72v-7.76ZM54.04 155.2h-7.72v7.76h7.72v-7.76ZM69.48 155.2h-7.72v7.76h7.72v-7.76ZM77.2 155.2h-7.72v7.76h7.72v-7.76ZM84.92 155.2H77.2v7.76h7.72v-7.76ZM108.08 155.2h-7.72v7.76h7.72v-7.76ZM115.8 155.2h-7.72v7.76h7.72v-7.76ZM131.24 155.2h-7.72v7.76h7.72v-7.76ZM138.96 155.2h-7.72v7.76h7.72v-7.76ZM146.68 155.2h-7.72v7.76h7.72v-7.76ZM154.4 155.2h-7.72v7.76h7.72v-7.76ZM162.12 155.2h-7.72v7.76h7.72v-7.76ZM193 155.2h-7.72v7.76H193v-7.76ZM7.72 162.96H0v7.76h7.72v-7.76ZM23.16 162.96h-7.72v7.76h7.72v-7.76ZM30.88 162.96h-7.72v7.76h7.72v-7.76ZM38.6 162.96h-7.72v7.76h7.72v-7.76ZM54.04 162.96h-7.72v7.76h7.72v-7.76ZM69.48 162.96h-7.72v7.76h7.72v-7.76ZM100.36 162.96h-7.72v7.76h7.72v-7.76ZM131.24 162.96h-7.72v7.76h7.72v-7.76ZM138.96 162.96h-7.72v7.76h7.72v-7.76ZM169.84 162.96h-7.72v7.76h7.72v-7.76ZM7.72 170.72H0v7.76h7.72v-7.76ZM23.16 170.72h-7.72v7.76h7.72v-7.76ZM30.88 170.72h-7.72v7.76h7.72v-7.76ZM38.6 170.72h-7.72v7.76h7.72v-7.76ZM54.04 170.72h-7.72v7.76h7.72v-7.76ZM92.64 170.72h-7.72v7.76h7.72v-7.76ZM100.36 170.72h-7.72v7.76h7.72v-7.76ZM115.8 170.72h-7.72v7.76h7.72v-7.76ZM123.52 170.72h-7.72v7.76h7.72v-7.76ZM131.24 170.72h-7.72v7.76h7.72v-7.76ZM154.4 170.72h-7.72v7.76h7.72v-7.76ZM162.12 170.72h-7.72v7.76h7.72v-7.76ZM177.56 170.72h-7.72v7.76h7.72v-7.76ZM185.28 170.72h-7.72v7.76h7.72v-7.76ZM193 170.72h-7.72v7.76H193v-7.76ZM7.72 178.48H0v7.76h7.72v-7.76ZM54.04 178.48h-7.72v7.76h7.72v-7.76ZM77.2 178.48h-7.72v7.76h7.72v-7.76ZM84.92 178.48H77.2v7.76h7.72v-7.76ZM92.64 178.48h-7.72v7.76h7.72v-7.76ZM108.08 178.48h-7.72v7.76h7.72v-7.76ZM115.8 178.48h-7.72v7.76h7.72v-7.76ZM138.96 178.48h-7.72v7.76h7.72v-7.76ZM146.68 178.48h-7.72v7.76h7.72v-7.76ZM154.4 178.48h-7.72v7.76h7.72v-7.76ZM162.12 178.48h-7.72v7.76h7.72v-7.76ZM177.56 178.48h-7.72v7.76h7.72v-7.76ZM185.28 178.48h-7.72v7.76h7.72v-7.76ZM193 178.48h-7.72v7.76H193v-7.76ZM7.72 186.24H0V194h7.72v-7.76ZM15.44 186.24H7.72V194h7.72v-7.76ZM23.16 186.24h-7.72V194h7.72v-7.76ZM30.88 186.24h-7.72V194h7.72v-7.76ZM38.6 186.24h-7.72V194h7.72v-7.76ZM46.32 186.24H38.6V194h7.72v-7.76ZM54.04 186.24h-7.72V194h7.72v-7.76ZM69.48 186.24h-7.72V194h7.72v-7.76ZM92.64 186.24h-7.72V194h7.72v-7.76ZM100.36 186.24h-7.72V194h7.72v-7.76ZM131.24 186.24h-7.72V194h7.72v-7.76ZM169.84 186.24h-7.72V194h7.72v-7.76ZM193 186.24h-7.72V194H193v-7.76Z" fill="#F2F2FA"/>
</svg>
